# xmcd CD database file
#
# Track frame offsets:
#	150
#	28703
#	55305
#	80408
#	104269
#	132231
#	164196
#	190710
#	216479
#
# Disc length: 3177 seconds
#
# Revision: 0
# Processed by: cddbd v1.5.2PL0 Copyright (c) Steve Scherf et al.
# Submitted via: CDex 1.70beta2
#
DISCID=810c6709
DTITLE=Renee Rosnes - Manhattan Rain
DYEAR=2010
DGENRE=Jazz
TTITLE0=Mirror Image
TTITLE1=Mr. Gentle and Mr. Cool
TTITLE2=Supper Time
TTITLE3=Manhattan Rain
TTITLE4=Milestones
TTITLE5=Let The Wild Rumpus Start
TTITLE6=Modinha
TTITLE7=Wishful Thinking
TTITLE8=Rouge
EXTD=YEAR: 2010
EXTT0=
EXTT1=
EXTT2=
EXTT3=
EXTT4=
EXTT5=
EXTT6=
EXTT7=
EXTT8=
PLAYORDER=
